<?xml version="1.0" standalone="no"?>
<!DOCTYPE svg PUBLIC "-//W3C//DTD SVG 20010904//EN"
 "http://www.w3.org/TR/2001/REC-SVG-20010904/DTD/svg10.dtd">
<svg version="1.0" xmlns="http://www.w3.org/2000/svg"
 width="1200.000000pt" height="628.000000pt" viewBox="0 0 1200.000000 628.000000"
 preserveAspectRatio="xMidYMid meet">

<g transform="translate(0.000000,628.000000) scale(0.100000,-0.100000)"
fill="#000000" stroke="none">
<path d="M5256 4525 c-253 -37 -501 -164 -700 -359 -235 -229 -356 -533 -356
-895 0 -396 138 -708 423 -959 206 -182 440 -279 730 -304 468 -39 883 141
1139 493 55 77 158 288 158 326 0 1 -161 3 -357 3 l-358 0 -35 -56 c-47 -75
-110 -129 -200 -173 l-75 -36 -150 0 c-138 0 -156 2 -232 28 -300 103 -455
385 -422 769 10 123 23 177 63 262 110 235 314 357 595 357 109 0 183 -17 256
-57 59 -33 152 -124 180 -177 l20 -37 358 0 359 0 -6 28 c-11 43 -100 221
-144 286 -141 207 -381 379 -641 460 -168 53 -410 69 -605 41z"/>
<path d="M10241 4524 c-229 -39 -447 -159 -560 -309 -98 -130 -141 -264 -141
-440 0 -187 52 -328 163 -438 94 -94 285 -183 547 -257 266 -74 360 -113 431
-177 80 -73 102 -187 55 -289 -42 -90 -124 -136 -245 -136 -92 0 -175 28 -221
75 -35 35 -80 120 -80 152 0 11 -3 30 -6 43 l-6 22 -319 0 -319 0 0 -57 c0
-74 30 -196 68 -278 131 -279 440 -435 862 -435 341 0 619 121 786 343 100
133 137 246 138 417 0 145 -15 215 -67 314 -102 192 -258 280 -740 416 -289
81 -385 148 -407 284 -26 162 62 273 226 284 86 5 146 -12 201 -61 41 -36 62
-73 82 -151 l16 -58 325 1 325 1 3 21 c6 37 -29 210 -55 279 -43 111 -128 217
-229 287 -194 134 -542 195 -833 147z"/>
<path d="M662 3263 l3 -1238 302 -3 303 -2 2 546 3 546 96 -129 c54 -70 121
-159 151 -198 52 -68 264 -347 477 -627 l104 -138 384 0 c242 0 383 4 381 10
-3 9 -91 118 -448 549 -532 645 -561 682 -548 700 7 9 75 93 152 186 77 94
166 202 197 240 77 93 323 392 483 585 70 85 137 167 148 183 l19 27 -393 0
-393 0 -179 -237 c-99 -131 -282 -374 -408 -541 l-228 -302 0 540 0 540 -305
0 -305 0 2 -1237z"/>
<path d="M3210 3260 l0 -1240 300 0 300 0 0 1240 0 1240 -300 0 -300 0 0
-1240z"/>
<path d="M7042 3263 l3 -1238 300 0 300 0 3 538 c1 318 6 537 11 535 5 -2 67
-79 138 -173 166 -219 365 -481 472 -620 46 -60 113 -149 150 -197 l66 -88
382 0 c211 0 383 3 383 8 0 4 -61 81 -136 172 -75 91 -161 197 -192 235 -31
39 -89 108 -128 155 -39 47 -158 191 -264 320 -106 129 -215 261 -243 293 -44
52 -48 60 -34 75 8 9 108 132 223 272 114 140 296 361 404 491 264 320 355
432 364 447 6 9 -74 12 -386 12 l-393 0 -110 -146 c-61 -80 -119 -158 -130
-174 -17 -25 -139 -186 -162 -215 -5 -5 -91 -120 -192 -255 -101 -135 -192
-254 -202 -265 -19 -19 -19 -7 -19 518 l0 537 -305 0 -305 0 2 -1237z"/>
</g>
</svg>
